<?xml version="1.0" encoding="utf-8"?>
<svg version="1.1" xmlns:xlink="http://www.w3.org/1999/xlink" width="120px" height="30px" xmlns="http://www.w3.org/2000/svg">
  <g transform="matrix(1 0 0 1 -396 -81 )">
    <path d="M 397 83  A 1 1 0 0 1 398 82 L 514 82  A 1 1 0 0 1 515 83 L 515 109  A 1 1 0 0 1 514 110 L 398 110  A 1 1 0 0 1 397 109 L 397 83  Z " fill-rule="nonzero" fill="#ffffff" stroke="none" />
    <path d="M 396.5 83  A 1.5 1.5 0 0 1 398 81.5 L 514 81.5  A 1.5 1.5 0 0 1 515.5 83 L 515.5 109  A 1.5 1.5 0 0 1 514 110.5 L 398 110.5  A 1.5 1.5 0 0 1 396.5 109 L 396.5 83  Z " stroke-width="1" stroke="#999999" fill="none" stroke-opacity="0.247058823529412" />
  </g>
</svg>