<?xml version="1.0" encoding="utf-8"?>
<svg version="1.1" xmlns:xlink="http://www.w3.org/1999/xlink" width="365px" height="250px" xmlns="http://www.w3.org/2000/svg">
  <g transform="matrix(1 0 0 1 -281 -128 )">
    <path d="M 282 130  A 1 1 0 0 1 283 129 L 644 129  A 1 1 0 0 1 645 130 L 645 376  A 1 1 0 0 1 644 377 L 283 377  A 1 1 0 0 1 282 376 L 282 130  Z " fill-rule="nonzero" fill="#ffffff" stroke="none" />
    <path d="M 281.5 130  A 1.5 1.5 0 0 1 283 128.5 L 644 128.5  A 1.5 1.5 0 0 1 645.5 130 L 645.5 376  A 1.5 1.5 0 0 1 644 377.5 L 283 377.5  A 1.5 1.5 0 0 1 281.5 376 L 281.5 130  Z " stroke-width="1" stroke="#dfe1e6" fill="none" stroke-opacity="0.498039215686275" />
  </g>
</svg>