<?xml version="1.0" encoding="utf-8"?>
<svg version="1.1" xmlns:xlink="http://www.w3.org/1999/xlink" width="375px" height="205px" xmlns="http://www.w3.org/2000/svg">
  <g transform="matrix(1 0 0 1 -1040 -89 )">
    <path d="M 1041 91  A 1 1 0 0 1 1042 90 L 1413 90  A 1 1 0 0 1 1414 91 L 1414 292  A 1 1 0 0 1 1413 293 L 1042 293  A 1 1 0 0 1 1041 292 L 1041 91  Z " fill-rule="nonzero" fill="#ffffff" stroke="none" />
    <path d="M 1040.5 91  A 1.5 1.5 0 0 1 1042 89.5 L 1413 89.5  A 1.5 1.5 0 0 1 1414.5 91 L 1414.5 292  A 1.5 1.5 0 0 1 1413 293.5 L 1042 293.5  A 1.5 1.5 0 0 1 1040.5 292 L 1040.5 91  Z " stroke-width="1" stroke="#999999" fill="none" stroke-opacity="0.247058823529412" />
  </g>
</svg>